<?xml version="1.0" encoding="utf-8"?>
<!-- Svg Vector Icons : http://www.onlinewebfonts.com/icon -->
<!DOCTYPE svg PUBLIC "-//W3C//DTD SVG 1.1//EN" "http://www.w3.org/Graphics/SVG/1.1/DTD/svg11.dtd">
<svg version="1.1" xmlns="http://www.w3.org/2000/svg" xmlns:xlink="http://www.w3.org/1999/xlink" x="0px" y="0px" viewBox="0 0 1000 1000" enable-background="new 0 0 1000 1000" xml:space="preserve">
<metadata> Svg Vector Icons : http://www.onlinewebfonts.com/icon </metadata>
<g><path d="M371.7,592.9c2.3-159.2,130.6-200,130.6-200S608.1,438,626.8,539.4c0.8,5.6,9.8,86.6-63,135.2c-71.3-42.3-63-188.7-63-188.7s-25.5,52.1-24,107.1c4.5,43.7,1.5,95.1,97.5,149.3c5.3-0.7,128.3-66.2,117-198.6c-29.3-137.3-142.6-180.3-142.6-180.3s67.9-57.5,63.7-132.6c-6-107.4-105.7-142.1-105.7-142.1s73.5,57.1,70.5,142.3c-3,85.2-76.5,109.9-76.5,109.9s-73.5-24.6-79.5-111.3c-0.7-100,78-146.5,78-146.5S392.7,128.1,386,233c-1.5,76.1,66.8,128.9,66.8,128.9s-143.3,71.8-133.6,222.5c-5.3,166.2,180.1,256.4,180.1,256.4S390.5,742.2,371.7,592.9z M746.1,297.8c17.3,14.8,26.3,26.8,27,80.3c-2.2,71.1-53.3,138-53.3,138s69.8-62,85.5-142.3c10.9-53-3.7-100.7-27.8-114.1c-97.5-12-137.3,45.1-137.3,45.1S721.4,279.5,746.1,297.8z M895.5,380.9c16.5,31,1.5,66.2,1.5,66.2s40.5-21.8,20.3-72.5C897,323.9,832.4,357,832.4,357S877.4,353.4,895.5,380.9z M941.2,536.6c0,11.3,1.5,40.1-47.3,88c-104.2,94.3-185.3,87.3-185.3,87.3s115.6,11.3,216.1-69.7c39.3-41.1,63.8-64.1,65.3-114.8c-41.3-61.3-159.1-62-159.1-62S933,503.5,941.2,536.6z M934.5,654.2c0,0,21.8,28.2,11.2,52.1c-4.5,25.3-47.3,57.8-47.3,57.8s63,2.8,79.5-58.5C980.3,651.4,934.5,654.2,934.5,654.2z M512.8,846.7c-3.5-2.8-5.3-4.5-5.3-4.5S509.1,844,512.8,846.7z M694.4,725.3c-135.8,26.8-189.8,104.9-189.8,104.9s88.5-81,198.8-77.5c122.3,4.9,162.1,69,162.1,69s-39,54.2-136.6,64.8c-144.6,2.8-200.1-28-216.1-39.8c19.4,15.7,92.4,67,217.6,69.4C889.5,907,933,818.3,933,818.3S857.2,709.1,694.4,725.3z M263.7,885.9c-98.3-14.8-132.1-64.1-130.6-71.1c21.8-57,114.8-75.4,114.8-75.4s-121.6-16.9-175.6,81c9,15.5,48,81.7,189.8,96.5c147.1,3.5,230.4-71.1,230.4-71.1S424.2,901.4,263.7,885.9z M75.6,638c138.1,95.3,219.1,74.2,219.1,74.2s-113.6-8-187.6-86.9c-19-17.8-43-45.1-46-89.2c11-37.6,116.1-70.9,116.1-70.9S48.1,464.7,10,523.9C9,534.7,25.6,596.7,75.6,638z M106.1,448.8c0,0-13.5-36.6,4-65.3c24-32.9,62.5-29.6,62.5-29.6s-56-33.3-90,16.9C62.1,423.4,106.1,448.8,106.1,448.8z M287.2,517.8c0,0-54-43.2-57-130.5c-1-71.8,15.5-79.8,23.5-89.2c42.5-29.6,114.1,11.7,114.1,11.7s-51-64.8-145.6-48.8c-40,44.1-24.5,122.1-24,127.2C204.1,465.2,287.2,517.8,287.2,517.8z M109,761.6c0,0-45.6-32.4-50.4-57.8c-11.2-23.9,12-52.1,12-52.1s-48.8-2.8-46.4,51.4C41.8,764.4,109,761.6,109,761.6z"/></g>
</svg>