<?xml version="1.0" encoding="UTF-8" standalone="no"?>
<svg
   xmlns:dc="http://purl.org/dc/elements/1.1/"
   xmlns:cc="http://creativecommons.org/ns#"
   xmlns:rdf="http://www.w3.org/1999/02/22-rdf-syntax-ns#"
   xmlns:svg="http://www.w3.org/2000/svg"
   xmlns="http://www.w3.org/2000/svg"
   xmlns:sodipodi="http://sodipodi.sourceforge.net/DTD/sodipodi-0.dtd"
   xmlns:inkscape="http://www.inkscape.org/namespaces/inkscape"
   inkscape:export-ydpi="95.740601"
   inkscape:export-xdpi="95.740601"
   inkscape:export-filename="/Users/lambda_school_loaner_213/Dropbox/Lambda/Build Week/HabitTracker-iOS/ZenLotus.png"
   inkscape:version="1.0beta1 (32d4812, 2019-09-19)"
   height="1024pt"
   width="1024pt"
   sodipodi:docname="ZenLotus.svg"
   id="svg16"
   xml:space="preserve"
   enable-background="new 0 0 1000 1000"
   viewBox="0 0 1365.3333 1365.3333"
   y="0px"
   x="0px"
   version="1.1"><defs
   id="defs20" />
<sodipodi:namedview
   units="pt"
   fit-margin-bottom="0"
   fit-margin-right="0"
   fit-margin-left="0"
   fit-margin-top="0"
   inkscape:current-layer="layer2"
   inkscape:window-maximized="0"
   inkscape:window-y="23"
   inkscape:window-x="0"
   inkscape:cy="655.93969"
   inkscape:cx="714.30261"
   inkscape:zoom="0.37020397"
   inkscape:pagecheckerboard="true"
   showgrid="false"
   id="namedview18"
   inkscape:window-height="755"
   inkscape:window-width="1280"
   inkscape:pageshadow="2"
   inkscape:pageopacity="0"
   guidetolerance="10"
   gridtolerance="10"
   objecttolerance="10"
   borderopacity="0.50196078"
   inkscape:document-rotation="0"
   bordercolor="#666666"
   pagecolor="#ffffff" />

<metadata
   id="metadata10"> Svg Vector Icons : http://www.onlinewebfonts.com/icon <rdf:RDF>
  <cc:Work
     rdf:about="">
    <dc:format>image/svg+xml</dc:format>
    <dc:type
       rdf:resource="http://purl.org/dc/dcmitype/StillImage" />
    <dc:title></dc:title>
  </cc:Work>
</rdf:RDF>
</metadata>


<rect
   y="3.0517578e-05"
   x="3.0474084e-05"
   height="1026.7744"
   width="1031.699"
   id="rect845"
   style="fill:#37004d;fill-opacity:0" />
<g
   style="display:inline"
   transform="translate(2.4623194,3.0517578e-5)"
   inkscape:label="Background"
   id="layer1"
   inkscape:groupmode="layer">
  <rect
     y="-3.0517578e-05"
     x="-2.4623194"
     height="1369.0326"
     width="1366.5703"
     id="rect847"
     style="fill:#37004d;fill-opacity:1;stroke-width:1.32895" />
</g>
<g
   transform="translate(2.4623194,3.0517578e-5)"
   style="display:inline;opacity:1"
   inkscape:label="Symbol"
   id="layer2"
   inkscape:groupmode="layer">
  <g
     style="display:inline;fill:#f3ce6d;fill-opacity:1"
     transform="matrix(0.88694059,0,0,1.0413374,235.04325,159.07593)"
     id="g14">
    <path
       style="fill:#f3ce6d;fill-opacity:1"
       inkscape:connector-curvature="0"
       id="path12"
       d="m 371.7,592.9 c 2.3,-159.2 130.6,-200 130.6,-200 0,0 105.8,45.1 124.5,146.5 0.8,5.6 9.8,86.6 -63,135.2 -71.3,-42.3 -63,-188.7 -63,-188.7 0,0 -25.5,52.1 -24,107.1 4.5,43.7 1.5,95.1 97.5,149.3 5.3,-0.7 128.3,-66.2 117,-198.6 C 662,406.4 548.7,363.4 548.7,363.4 c 0,0 67.9,-57.5 63.7,-132.6 -6,-107.4 -105.7,-142.1 -105.7,-142.1 0,0 73.5,57.1 70.5,142.3 -3,85.2 -76.5,109.9 -76.5,109.9 0,0 -73.5,-24.6 -79.5,-111.3 -0.7,-100 78,-146.5 78,-146.5 0,0 -106.5,45 -113.2,149.9 -1.5,76.1 66.8,128.9 66.8,128.9 0,0 -143.3,71.8 -133.6,222.5 -5.3,166.2 180.1,256.4 180.1,256.4 0,0 -108.8,-98.6 -127.6,-247.9 z M 746.1,297.8 c 17.3,14.8 26.3,26.8 27,80.3 -2.2,71.1 -53.3,138 -53.3,138 0,0 69.8,-62 85.5,-142.3 10.9,-53 -3.7,-100.7 -27.8,-114.1 -97.5,-12 -137.3,45.1 -137.3,45.1 0,0 81.2,-25.3 105.9,-7 z m 149.4,83.1 c 16.5,31 1.5,66.2 1.5,66.2 0,0 40.5,-21.8 20.3,-72.5 C 897,323.9 832.4,357 832.4,357 c 0,0 45,-3.6 63.1,23.9 z m 45.7,155.7 c 0,11.3 1.5,40.1 -47.3,88 -104.2,94.3 -185.3,87.3 -185.3,87.3 0,0 115.6,11.3 216.1,-69.7 39.3,-41.1 63.8,-64.1 65.3,-114.8 -41.3,-61.3 -159.1,-62 -159.1,-62 0,0 102.1,38.1 110.3,71.2 z m -6.7,117.6 c 0,0 21.8,28.2 11.2,52.1 -4.5,25.3 -47.3,57.8 -47.3,57.8 0,0 63,2.8 79.5,-58.5 2.4,-54.2 -43.4,-51.4 -43.4,-51.4 z M 512.8,846.7 c -3.5,-2.8 -5.3,-4.5 -5.3,-4.5 0,0 1.6,1.8 5.3,4.5 z M 694.4,725.3 c -135.8,26.8 -189.8,104.9 -189.8,104.9 0,0 88.5,-81 198.8,-77.5 122.3,4.9 162.1,69 162.1,69 0,0 -39,54.2 -136.6,64.8 -144.6,2.8 -200.1,-28 -216.1,-39.8 19.4,15.7 92.4,67 217.6,69.4 C 889.5,907 933,818.3 933,818.3 c 0,0 -75.8,-109.2 -238.6,-93 z M 263.7,885.9 c -98.3,-14.8 -132.1,-64.1 -130.6,-71.1 21.8,-57 114.8,-75.4 114.8,-75.4 0,0 -121.6,-16.9 -175.6,81 9,15.5 48,81.7 189.8,96.5 147.1,3.5 230.4,-71.1 230.4,-71.1 0,0 -68.3,55.6 -228.8,40.1 z M 75.6,638 c 138.1,95.3 219.1,74.2 219.1,74.2 0,0 -113.6,-8 -187.6,-86.9 -19,-17.8 -43,-45.1 -46,-89.2 11,-37.6 116.1,-70.9 116.1,-70.9 0,0 -129.1,-0.5 -167.2,58.7 -1,10.8 15.6,72.8 65.6,114.1 z m 30.5,-189.2 c 0,0 -13.5,-36.6 4,-65.3 24,-32.9 62.5,-29.6 62.5,-29.6 0,0 -56,-33.3 -90,16.9 -20.5,52.6 23.5,78 23.5,78 z m 181.1,69 c 0,0 -54,-43.2 -57,-130.5 -1,-71.8 15.5,-79.8 23.5,-89.2 42.5,-29.6 114.1,11.7 114.1,11.7 0,0 -51,-64.8 -145.6,-48.8 -40,44.1 -24.5,122.1 -24,127.2 5.9,77 89,129.6 89,129.6 z M 109,761.6 c 0,0 -45.6,-32.4 -50.4,-57.8 -11.2,-23.9 12,-52.1 12,-52.1 0,0 -48.8,-2.8 -46.4,51.4 17.6,61.3 84.8,58.5 84.8,58.5 z" />
  </g>
</g>
</svg>
