<?xml version="1.0" encoding="UTF-8" standalone="no"?>
<svg
   xmlns:dc="http://purl.org/dc/elements/1.1/"
   xmlns:cc="http://creativecommons.org/ns#"
   xmlns:rdf="http://www.w3.org/1999/02/22-rdf-syntax-ns#"
   xmlns:svg="http://www.w3.org/2000/svg"
   xmlns="http://www.w3.org/2000/svg"
   xmlns:sodipodi="http://sodipodi.sourceforge.net/DTD/sodipodi-0.dtd"
   xmlns:inkscape="http://www.inkscape.org/namespaces/inkscape"
   sodipodi:docname="Backsplash.svg"
   inkscape:version="1.0beta1 (32d4812, 2019-09-19)"
   id="svg887"
   version="1.1"
   viewBox="0 0 481.89446 481.89444"
   height="1366pt"
   width="1366pt">
  <defs
     id="defs881">
    <rect
       id="rect1540"
       height="183.3944"
       width="357.55311"
       y="274.4319"
       x="69.92736" />
    <filter
       height="1.025661"
       y="-0.012830497"
       width="1.022541"
       x="-0.011270481"
       id="filter1546"
       style="color-interpolation-filters:sRGB"
       inkscape:collect="always">
      <feGaussianBlur
         id="feGaussianBlur1548"
         stdDeviation="0.93268479"
         inkscape:collect="always" />
    </filter>
  </defs>
  <sodipodi:namedview
     inkscape:window-maximized="0"
     inkscape:window-y="23"
     inkscape:window-x="0"
     inkscape:window-height="755"
     inkscape:window-width="1280"
     inkscape:snap-global="true"
     inkscape:pagecheckerboard="true"
     units="pt"
     showgrid="false"
     inkscape:document-rotation="0"
     inkscape:current-layer="layer3"
     inkscape:document-units="mm"
     inkscape:cy="1053.7883"
     inkscape:cx="654.24745"
     inkscape:zoom="0.24096172"
     inkscape:pageshadow="2"
     inkscape:pageopacity="0.0"
     borderopacity="1.0"
     bordercolor="#666666"
     pagecolor="#ffffff"
     id="base" />
  <metadata
     id="metadata884">
    <rdf:RDF>
      <cc:Work
         rdf:about="">
        <dc:format>image/svg+xml</dc:format>
        <dc:type
           rdf:resource="http://purl.org/dc/dcmitype/StillImage" />
        <dc:title></dc:title>
      </cc:Work>
    </rdf:RDF>
  </metadata>
  <g
     inkscape:label="Background"
     id="layer3"
     inkscape:groupmode="layer">
    <rect
       y="1.2739404"
       x="-1.1173689"
       height="482.89459"
       width="485.53339"
       id="rect1452"
       style="fill:#37004d;stroke-width:0.264583" />
  </g>
  <g
     style="filter:url(#filter1546)"
     id="layer1"
     inkscape:groupmode="layer"
     inkscape:label="Symbol">
    <path
       style="opacity:1;stroke-width:0.205906;stop-opacity:1;stroke:#f4fe9e;stroke-opacity:1;fill:#f4fe9e;fill-opacity:1"
       inkscape:connector-curvature="0"
       id="path1526"
       d="m 211.6283,205.42734 c 0.4661,-33.30594 26.46683,-41.84163 26.46683,-41.84163 0,0 21.44097,9.43529 25.23064,30.64899 0.16212,1.17157 1.98602,18.11743 -12.76731,28.28495 -14.44936,-8.84951 -12.76732,-39.47759 -12.76732,-39.47759 0,0 -5.16771,10.89975 -4.86373,22.4062 0.91195,9.1424 0.30398,19.89569 19.75893,31.23478 1.07408,-0.14645 26.00073,-13.84959 23.71072,-41.54874 -5.93781,-28.72428 -28.89871,-37.72023 -28.89871,-37.72023 0,0 13.76033,-12.02947 12.90917,-27.741 -1.21593,-22.46895 -21.42071,-29.728479 -21.42071,-29.728479 0,0 14.8952,11.945789 14.28723,29.770319 -0.60796,17.82453 -15.50316,22.99198 -15.50316,22.99198 0,0 -14.89519,-5.14652 -16.11113,-23.28487 -0.14186,-20.92081 15.80715,-30.648989 15.80715,-30.648989 0,0 -21.58284,9.414369 -22.94063,31.360299 -0.30399,15.92074 13.5374,26.96693 13.5374,26.96693 0,0 -29.04057,15.02114 -27.0748,46.54881 -1.07408,34.77039 36.49829,53.64097 36.49829,53.64097 0,0 -22.04894,-20.62793 -25.85886,-51.8627 z m 75.87429,-61.73732 c 3.50595,3.09628 5.32986,5.60677 5.47171,16.79941 -0.44584,14.87469 -10.80155,28.87072 -10.80155,28.87072 0,0 14.14537,-12.9709 17.32707,-29.77032 2.20895,-11.08802 -0.74983,-21.06725 -5.63383,-23.87065 -19.75893,-2.51049 -27.82463,9.43529 -27.82463,9.43529 0,0 16.45564,-5.29297 21.46123,-1.46445 z m 30.27677,17.38519 c 3.34382,6.48545 0.30399,13.84958 0.30399,13.84958 0,0 8.20755,-4.56074 4.11391,-15.16759 -4.11391,-10.60685 -17.20547,-3.68206 -17.20547,-3.68206 0,0 9.11951,-0.75315 12.78757,5.00007 z m 9.26137,32.57371 c 0,2.36405 0.30398,8.38925 -9.58562,18.41032 -21.11672,19.72832 -37.5521,18.26386 -37.5521,18.26386 0,0 23.427,2.36406 43.7939,-14.5818 7.96437,-8.59846 12.92943,-13.41025 13.23342,-24.0171 -8.36968,-12.82446 -32.24253,-12.9709 -32.24253,-12.9709 0,0 20.69115,7.97083 22.35293,14.89562 z m -1.3578,24.60288 c 0,0 4.4179,5.89967 2.26975,10.89974 -0.91195,5.29297 -9.58561,12.09223 -9.58561,12.09223 0,0 12.76731,0.58579 16.11112,-12.23867 0.48638,-11.33909 -8.79526,-10.7533 -8.79526,-10.7533 z m -85.45992,40.27257 c -0.70929,-0.58579 -1.07407,-0.94144 -1.07407,-0.94144 0,0 0.32425,0.37657 1.07407,0.94144 z m 36.80229,-25.39788 c -27.52065,5.60678 -38.46406,21.94594 -38.46406,21.94594 0,0 17.93503,-16.94586 40.28796,-16.21364 24.78479,1.02513 32.85049,14.43537 32.85049,14.43537 0,0 -7.90358,11.33908 -27.68277,13.55668 -29.30402,0.58579 -40.55141,-5.85782 -43.79391,-8.32647 3.93153,3.28456 18.72539,14.01694 44.09789,14.51904 32.24252,-1.9038 41.05805,-20.46056 41.05805,-20.46056 0,0 -15.3613,-22.84553 -48.35365,-19.45636 z m -87.28382,33.59883 c -19.92106,-3.09628 -26.77083,-13.41024 -26.46685,-14.8747 4.4179,-11.92486 23.26488,-15.77429 23.26488,-15.77429 0,0 -24.64293,-3.53562 -35.58634,16.94586 1.8239,3.24273 9.72748,17.0923 38.46405,20.18859 29.81066,0.73222 46.69188,-14.87471 46.69188,-14.87471 0,0 -13.84138,11.63198 -46.36762,8.38925 z m -38.11955,-51.86269 c 27.98676,19.93753 44.40187,15.52324 44.40187,15.52324 0,0 -23.02169,-1.67367 -38.01821,-18.18019 -3.85046,-3.72391 -8.7142,-9.43529 -9.32217,-18.66137 2.22922,-7.86622 23.52834,-14.83285 23.52834,-14.83285 0,0 -26.16286,-0.10461 -33.88405,12.28052 -0.20265,2.25944 3.16143,15.23034 13.29422,23.87065 z m 6.181,-39.58219 c 0,0 -2.73585,-7.65701 0.81063,-13.66129 4.86374,-6.88294 12.66598,-6.19256 12.66598,-6.19256 0,0 -11.34872,-6.96663 -18.23901,3.53562 -4.15445,11.00434 4.7624,16.31823 4.7624,16.31823 z m 36.70096,14.43537 c 0,0 -10.94341,-9.0378 -11.55138,-27.30167 -0.20266,-15.02114 3.14116,-16.6948 4.76241,-18.66136 8.61287,-6.19256 23.12302,2.44774 23.12302,2.44774 0,0 -10.33545,-13.55669 -29.50668,-10.20936 -8.10622,9.22608 -4.96506,25.54431 -4.86373,26.61127 1.19566,16.10903 18.03636,27.11338 18.03636,27.11338 z m -36.11325,51.00494 c 0,0 -9.24111,-6.77834 -10.21386,-12.09223 -2.26974,-5.00007 2.43187,-10.89974 2.43187,-10.89974 0,0 -9.88959,-0.58579 -9.40322,10.75329 3.56674,12.82446 17.18521,12.23868 17.18521,12.23868 z" />
  </g>
  <g
     inkscape:label="Text"
     id="layer4"
     inkscape:groupmode="layer">
    <text
       id="text1552"
       y="326.9335"
       x="243.2708"
       style="font-weight:bold;font-size:50.8px;line-height:1.25;font-family:Helvetica;-inkscape-font-specification:'Helvetica Bold';fill:#f4fe9e;fill-opacity:1;stroke-width:0.264583"
       xml:space="preserve"><tspan
         style="text-align:center;text-anchor:middle;fill:#f4fe9e;fill-opacity:1;stroke-width:0.264583"
         y="326.9335"
         x="243.2708"
         id="tspan1550"
         sodipodi:role="line">Habit</tspan><tspan
         id="tspan1554"
         style="text-align:center;text-anchor:middle;fill:#f4fe9e;fill-opacity:1;stroke-width:0.264583"
         y="390.4335"
         x="243.2708"
         sodipodi:role="line">Tracker</tspan></text>
  </g>
</svg>
